<svg id="Layer_1" data-name="Layer 1" xmlns="http://www.w3.org/2000/svg" viewBox="0 0 288 288">
  <defs>
    <style>
      .cls-1 {
        fill: #6e2790;
      }
    </style>
  </defs>
  <g>
    <path class="cls-1" d="M100.42,201.92a62.44,62.44,0,0,1-23.28-4.24,54.45,54.45,0,0,1-18.48-12,53.11,53.11,0,0,1-12.08-18.4,62.68,62.68,0,0,1-4.24-23.44,58.33,58.33,0,0,1,4.48-23A55.5,55.5,0,0,1,77.94,90.4a63,63,0,0,1,23.6-4.32,60,60,0,0,1,15.68,2.08,54.48,54.48,0,0,1,14.32,6.16A48.3,48.3,0,0,1,143,104l-16.64,19a48.64,48.64,0,0,0-7.12-6.16A30.62,30.62,0,0,0,111,112.8a32.66,32.66,0,0,0-21.68.88,29.34,29.34,0,0,0-16.56,16.88,36.8,36.8,0,0,0-2.4,13.6,35.67,35.67,0,0,0,2.4,13.36,30.33,30.33,0,0,0,6.72,10.32,28.17,28.17,0,0,0,10.48,6.56,39.58,39.58,0,0,0,13.68,2.24,32.74,32.74,0,0,0,9.76-1.44,35.48,35.48,0,0,0,8.56-3.92,36.18,36.18,0,0,0,7-5.68L142,186.4a38,38,0,0,1-10.64,8,64.13,64.13,0,0,1-14.72,5.52A67.54,67.54,0,0,1,100.42,201.92Z"/>
    <path class="cls-1" d="M160.54,200.32v-112h48.32a36.65,36.65,0,0,1,18.8,4.8,36,36,0,0,1,13.12,13.12A36.36,36.36,0,0,1,245.66,125a38.6,38.6,0,0,1-4.88,19.44,36.69,36.69,0,0,1-13.12,13.52,35.7,35.7,0,0,1-18.8,5H187.74v37.44ZM187.26,139H205a12.05,12.05,0,0,0,6.4-1.76,13.36,13.36,0,0,0,4.64-4.8,13.83,13.83,0,0,0,1.76-7,13.3,13.3,0,0,0-1.76-7,12.53,12.53,0,0,0-4.64-4.48,12.91,12.91,0,0,0-6.4-1.6H187.26Z"/>
  </g>
</svg>
